<?xml version="1.0" encoding="iso-8859-1"?>
<!-- Generator: Adobe Illustrator 19.0.0, SVG Export Plug-In . SVG Version: 6.00 Build 0)  -->
<svg version="1.1" id="Capa_1" xmlns="http://www.w3.org/2000/svg" xmlns:xlink="http://www.w3.org/1999/xlink" x="0px" y="0px"
	 viewBox="0 0 512 512" style="enable-background:new 0 0 512 512;" xml:space="preserve">
<path style="fill:#4FC16E;" d="M118.096,372.669L118.096,372.669c-67.843,0-120.395-59.36-112.171-126.703l20.082-164.44
	C31.691,34.985,71.208,0,118.096,0l0,0c46.888,0,86.404,34.985,92.088,81.526l20.082,164.44
	C238.491,313.309,185.939,372.669,118.096,372.669z"/>
<path style="fill:#369151;" d="M118.096,372.669L118.096,372.669c0-75.676,0-313.417,0-372.669l0,0
	c46.888,0,86.404,34.985,92.088,81.526l20.082,164.44C238.491,313.309,185.939,372.669,118.096,372.669z"/>
<polygon style="fill:#804D00;" points="172.752,244.604 133.096,265.455 133.096,189.253 186.713,161.062 172.752,134.509
	133.096,155.36 133.096,111.527 103.096,111.527 103.096,210.407 63.441,189.557 49.479,216.109 103.096,244.301 103.096,512
	133.096,512 133.096,299.349 186.713,271.157 "/>

</svg>
