<svg xmlns="http://www.w3.org/2000/svg" xmlns:xlink="http://www.w3.org/1999/xlink" viewBox="0 0 318.1 306.1">
  <defs>
    <style>
      .cls-1 {
        fill: #b2753d;
      }
      .cls-2 {
        fill: #ecd8be;
      }
      .cls-3,
      .cls-5 {
        fill: #5e3d18;
      }
      .cls-3 {
        stroke: #714e2b;
        stroke-miterlimit: 10;
        stroke-width: 0.2px;
      }
      .cls-4 {
        fill: #e4c8a6;
      }
      .cls-6 {
        fill: #fff;
      }
      .cls-7 {
        fill: #68a8de;
      }
      .cls-8 {
        fill: #20201e;
      }
      .cls-9 {
        fill: #992f27;
      }
      .cls-10 {
        fill: #c29289;
      }
      .cls-11 {
        fill: #714e2b;
      }
      .cls-12 {
        fill: #d0a199;
      }
      .cls-13 {
        fill: #d8b5ad;
      }
      .cls-14 {
        fill: #ececec;
      }
      .cls-15 {
        fill: #2f30b0;
      }
      .cls-16 {
        fill: #3a85d9;
      }
      .cls-17 {
        fill: #2f307f;
      }
      .cls-18 {
        fill: #5c4e44;
      }
      .cls-19 {
        fill: #69a841;
      }
      .cls-20 {
        fill: #f5f5f5;
      }
      .cls-21 {
        fill: #b0b1b1;
      }
      .cls-22 {
        fill: #d19307;
      }
      .cls-23 {
        fill: #4370b4;
      }
      .cls-24 {
        fill: #d1932c;
      }
      .cls-25 {
        fill: #a1bf36;
      }
      .cls-26 {
        fill: #fbaf00;
      }
      .cls-27 {
        fill: #e79f00;
      }
      .cls-28 {
        opacity: 0.15;
      }
      .cls-29 {
        fill: #dba199;
      }
      .cls-30 {
        fill: #a21b25;
      }
      .cls-31 {
        fill: #ffc28c;
      }
    </style>
    <symbol id="sproeten" data-name="sproeten" viewBox="0 0 10.1 5.5"><ellipse class="cls-1" cx="3.7" cy="3.5" rx="0.4" ry="0.4"/><ellipse class="cls-1" cx="2.9" cy="5.1" rx="0.4" ry="0.4"/><ellipse class="cls-1" cx="1.1" cy="4.2" rx="0.4" ry="0.4"/><ellipse class="cls-1" cx="4.6" cy="2.2" rx="0.4" ry="0.4"/><ellipse class="cls-1" cx="0.4" cy="1.5" rx="0.4" ry="0.4"/><ellipse class="cls-1" cx="5.7" cy="4.6" rx="0.4" ry="0.4"/><ellipse class="cls-1" cx="1.8" cy="0.6" rx="0.4" ry="0.4"/><ellipse class="cls-1" cx="2" cy="2.6" rx="0.4" ry="0.4"/><ellipse class="cls-1" cx="5.5" cy="0.4" rx="0.4" ry="0.4"/><ellipse class="cls-1" cx="4.1" cy="0.6" rx="0.4" ry="0.4"/><ellipse class="cls-1" cx="8.5" cy="2.9" rx="0.4" ry="0.4"/><ellipse class="cls-1" cx="7.4" cy="5.1" rx="0.4" ry="0.4"/><ellipse class="cls-1" cx="6.7" cy="3.3" rx="0.4" ry="0.4"/><ellipse class="cls-1" cx="7" cy="1" rx="0.4" ry="0.4"/><ellipse class="cls-1" cx="9.2" cy="4.5" rx="0.4" ry="0.4"/><ellipse class="cls-1" cx="9.8" cy="1.6" rx="0.4" ry="0.4"/></symbol>
  </defs>
  <title>figures2</title>
  <g id="boy"><path
    class="cls-2"
    d="M135.4,114.2a56.2,56.2,0,0,0,1.4-9.2c0-17-14.2-30.8-31.8-30.8S73.1,88,73.1,105a54.3,54.3,0,0,0,1.4,9.1s-2.2.3-1.4,3.7,3.7,1.7,3.7,1.7,5.3,7.8,11.9,12.3,12.6,4.4,12.7,4.6a10.1,10.1,0,0,1,.7,3.1c.1,1.7-2.3,4.2-2.3,4.2s2.6,2.3,5.4,2.2a14.5,14.5,0,0,0,6.2-1.6c.2-.4-2.8-3.1-2.9-4.4s0-2.9.6-3.5a61.8,61.8,0,0,0,12.9-4.1c6.9-3.3,11-12.5,11-12.5s3.1,1.7,4-1.7S135.4,114.2,135.4,114.2Z"/>
    <g id="left_ear" data-name="left ear"><path
      class="cls-3"
      d="M137.3,96.1c-.3-2-1.3-2.8-1.8-3.8-4.4-8.7-14.4-15.5-16.6-16.3,1.2-.3,1.3-.2,3.1,0a8.3,8.3,0,0,0-4.5-.9c-4-3.6-20.4-3.3-20.4-3.3s1.3.4,1.1,1.5-5.2,1.5-6.6,3c.2-.8-.1-2.9-1.8-5.3-1,.8-1.3,1.7-1.5,5.1-3.3-.2-6.1.6-7.2,2.5a6.3,6.3,0,0,1,4.7,0c-3.6,1.3-8.5,7.6-8.5,7.6a24.6,24.6,0,0,0-4.2,11l1.1-2.6c-1.2,1.4-.5,18.2-.5,19.9a2.8,2.8,0,0,1,2.4-.5s.3-4.3,1.1-5.6,5.9-10.3,7.9-12.9c6.9,0,12.3-4.7,15.2-8,8.3,7.4,21.4,6.5,22.9,6.5a4.9,4.9,0,0,0,3,1.5c1.4,10.1,7.1,13.1,7.8,15.6.2.9-.5,2.3-.6,3.4a2.8,2.8,0,0,1,2.7-.2,60.9,60.9,0,0,0,.5-19.2Z"/><path
      class="cls-4"
      d="M76.6,115.4l-1.1-.4a2.2,2.2,0,0,0-1.1-.1c-.3.1-.4.4-.4.8a4.1,4.1,0,0,0,.1,1.1,3.3,3.3,0,0,0,.9,2.1,1.7,1.7,0,0,0,2,.3,1.5,1.5,0,0,1-1.1.4,1.8,1.8,0,0,1-1.2-.5,3.1,3.1,0,0,1-1.1-2.2,5.3,5.3,0,0,1-.1-1.3,1.3,1.3,0,0,1,.8-1.1A3,3,0,0,1,76.6,115.4Z"/><path
      class="cls-4"
      d="M75.1,116.7c.2.3.5.6.7.6s.3-.5.3-.8-.2-.5-.5-.6h-.7c0,.2-.1.6-.1.9a2.9,2.9,0,0,0,.2.9,1.4,1.4,0,0,0,.5.8.9.9,0,0,0,.9.1.9.9,0,0,1-1,.1c-.4-.1-.6-.5-.8-.8a3.6,3.6,0,0,1-.2-1.1,2.6,2.6,0,0,1,.1-1.2h.2c.2-.1.2,0,.2-.1h.3l.6.2a1,1,0,0,1,.6,1,1.3,1.3,0,0,1-.1.6c-.1.2-.2.4-.5.4a.9.9,0,0,1-.5-.3C75.2,117,75.2,116.8,75.1,116.7Z"/><path
      class="cls-4"
      d="M77.2,115.4a2.2,2.2,0,0,0-1-1.3,2.9,2.9,0,0,0-1.6.1,1.8,1.8,0,0,0-1.2,1,2.7,2.7,0,0,0-.3,1.6,3.2,3.2,0,0,0,1.4,2.8,3,3,0,0,0,3.1-.6,3.8,3.8,0,0,1-1.5.9,2.3,2.3,0,0,1-1.8,0,3.3,3.3,0,0,1-1.2-1.4,8.5,8.5,0,0,1-.4-1.7A3.8,3.8,0,0,1,73,115a2.1,2.1,0,0,1,1.5-1.1,2.3,2.3,0,0,1,1.8.1C76.9,114.2,77.1,114.9,77.2,115.4Z"/></g>
    <g id="Right_ear" data-name="Right ear"><path class="cls-4" d="M133.7,115.6a3.6,3.6,0,0,1,2.3-.8c.4.1.6.7.6,1.1a4.8,4.8,0,0,1,0,1.2,3.9,3.9,0,0,1-1.1,2.2,1.8,1.8,0,0,1-2.2.1,1.6,1.6,0,0,0,2.1-.3,3.1,3.1,0,0,0,.9-2.1,3.7,3.7,0,0,0,.1-1.1.9.9,0,0,0-.5-.9,2,2,0,0,0-1.1.1Z"/><path
      class="cls-4"
      d="M135.1,116.9l-.2.5-.4.2c-.5-.1-.6-.5-.6-.9a1,1,0,0,1,.6-.9h.8c.1-.1.3,0,.4.1a2.2,2.2,0,0,1,.1,1.1,3,3,0,0,1-.2,1,2.2,2.2,0,0,1-.7.9,1.6,1.6,0,0,1-1-.1h.9a1.6,1.6,0,0,0,.6-.8,3.1,3.1,0,0,0,.1-1.9h-.9a.8.8,0,0,0-.5.7c0,.3.1.7.4.8S135,117.2,135.1,116.9Z"/><path
      class="cls-4"
      d="M132.9,115.7a1.6,1.6,0,0,1,.8-1.5,2.8,2.8,0,0,1,1.8-.2,2.1,2.1,0,0,1,1.5,1.1,3.3,3.3,0,0,1,.4,1.7,5.7,5.7,0,0,1-.3,1.8,2.8,2.8,0,0,1-1.2,1.4,2.2,2.2,0,0,1-1.8.1,4.4,4.4,0,0,1-1.5-.8,3.1,3.1,0,0,0,3.2.4,3.4,3.4,0,0,0,1.2-2.9,4.5,4.5,0,0,0-.3-1.6,2.5,2.5,0,0,0-1.3-.9h-1.6A1.8,1.8,0,0,0,132.9,115.7Z"/></g><path class="cls-5" d="M87.9,101.2a12.8,12.8,0,0,1,1.5-2.5,4.8,4.8,0,0,1,2.4-1.8,7.6,7.6,0,0,1,3,0,5.7,5.7,0,0,1,2.7,1.3,9.7,9.7,0,0,0-2.8-.5,7.4,7.4,0,0,0-2.6.2,4.6,4.6,0,0,0-2.2,1.3Z"/><path class="cls-5" d="M113,98.6a5.2,5.2,0,0,1,4.7-2,7.5,7.5,0,0,1,2.5.9,8.7,8.7,0,0,0,1,.8l.8,1-1.1-.6-1.1-.5a8.6,8.6,0,0,0-2.3-.6,5.5,5.5,0,0,0-2.2.2A6.3,6.3,0,0,0,113,98.6Z"/>
    <g id="eyes_boy" data-name="eyes boy"><ellipse class="cls-6" cx="93.9" cy="107.2" rx="6.1" ry="6.6"/><ellipse class="cls-6" cx="116.8" cy="107.2" rx="6.1" ry="6.6"/><path class="cls-7" d="M99.9,108.3c-.6,3-2.9,5.1-4.5,4.9s-2.6-3-2.1-5.9,2.3-5.1,3.9-4.9S100.4,105.4,99.9,108.3Z"/><path class="cls-7" d="M122.7,108.7c-.6,2.9-2.8,4.8-4.5,4.5s-2.5-3-1.8-6,2.4-5,4.1-4.7S123.2,105.8,122.7,108.7Z"/><circle class="cls-8" cx="96.6" cy="106.3" r="1.7"/><circle class="cls-8" cx="120.3" cy="106.3" r="1.7"/></g><path class="cls-4" d="M104.2,113.4a10,10,0,0,0-.8,1.4,4.2,4.2,0,0,0-.4,1.5c0,.4.5.7,1,.8l1.6.4h-1.7a1.6,1.6,0,0,1-.9-.3,1.9,1.9,0,0,1-.5-.9,3.5,3.5,0,0,1,.6-1.7A4.1,4.1,0,0,1,104.2,113.4Z"/><path class="cls-9" d="M96.5,122.4c0-.3.3-.5.5-.4a33.3,33.3,0,0,0,7.2,1.3,38.2,38.2,0,0,0,8.3-.8c.2,0,.3.1.3.2-.6,2.5-2,6.1-8.1,6.8S96.8,125.5,96.5,122.4Z"/><path
      class="cls-10"
      d="M96.5,122.4c0-.3.2-.5.5-.4l.6.2,1.2.3,2.5.4,2.5.3h2.5a40.2,40.2,0,0,0,5-.6l1.3-.2a.4.4,0,0,1,.4.4v.3a2.5,2.5,0,0,0-.2.7,9.7,9.7,0,0,1-1.1,2.3,7.9,7.9,0,0,1-4.1,3.1l-2.5.5a7.6,7.6,0,0,1-2.6.1,6.3,6.3,0,0,1-4.3-2.6A9.9,9.9,0,0,1,96.5,122.4Zm.1,0a8.6,8.6,0,0,0,1.7,4.6,6.2,6.2,0,0,0,4.2,2.5,7.6,7.6,0,0,0,2.6-.1l2.4-.5a8.1,8.1,0,0,0,4-3,9.4,9.4,0,0,0,1-2.3,1.4,1.4,0,0,0,.2-.6v-.3a.2.2,0,0,0-.2-.2l-1.2.2a44.3,44.3,0,0,1-5.1.6h-2.5l-2.5-.3-2.5-.5-1.2-.3L97,122C96.7,122,96.5,122.2,96.6,122.4Z"/><circle class="cls-6" cx="95.6" cy="105.4" r="0.4"/><circle class="cls-6" cx="119.4" cy="105.4" r="0.4"/><path class="cls-11" d="M100.7,86.4s10.7,7.6,22.1,6.4C114.1,92.2,108.1,89.9,100.7,86.4Z"/>
    <g id="hair_in_different_color" data-name="hair in different color"><path
      class="cls-11"
      d="M104.6,76a5.6,5.6,0,0,1,3.8.5,18.6,18.6,0,0,1,3.2,2.3,8.4,8.4,0,0,0,3.1,1.9l1.9.2a6,6,0,0,1,1.9.6,57,57,0,0,1,6.5,4.4,34.7,34.7,0,0,1,2.9,2.5,18.1,18.1,0,0,1,2.5,3,22.9,22.9,0,0,0-2.7-2.7l-3.1-2.3a64,64,0,0,0-6.4-4.2,5.8,5.8,0,0,0-1.7-.6l-2-.2a8.3,8.3,0,0,1-3.3-2.2,17.6,17.6,0,0,0-3-2.4A5,5,0,0,0,104.6,76Z"/><path class="cls-11" d="M102.4,78a21.2,21.2,0,0,0,1.1,2.1l1.3,2a27.4,27.4,0,0,0,3.2,3.6,17,17,0,0,0,3.9,2.7,17.2,17.2,0,0,0,4.5,1.6,13.4,13.4,0,0,1-4.8-1.1l-2.2-1.1-1.9-1.6a18.9,18.9,0,0,1-3.2-3.7A17.9,17.9,0,0,1,102.4,78Z"/><path class="cls-11" d="M106.8,80.3a11.8,11.8,0,0,0,2.3,2.7,20,20,0,0,0,2.8,2l3.2,1.3,3.5.7a10.9,10.9,0,0,1-3.6-.2,11.2,11.2,0,0,1-3.5-1.2,14.8,14.8,0,0,1-2.9-2.2A8.1,8.1,0,0,1,106.8,80.3Z"/><path class="cls-11" d="M125,90a27.2,27.2,0,0,1,3.9,3.7,7.9,7.9,0,0,1,1.6,2.3l.9,2.5,1.8,5a30.2,30.2,0,0,1,1.2,5.2,24.1,24.1,0,0,0-.8-2.5l-1-2.5-1.9-5-.9-2.5a12.7,12.7,0,0,0-1.3-2.2C127.4,92.6,126.2,91.4,125,90Z"/><path class="cls-11" d="M129.5,86.6a23.4,23.4,0,0,1,3.3,4.3,6.4,6.4,0,0,1,1.1,2.5l.5,2.6a48.9,48.9,0,0,1,.9,5.3,30.8,30.8,0,0,1,.4,5.3,23.8,23.8,0,0,0-.5-2.6l-.5-2.6-1-5.3-.5-2.6a7.8,7.8,0,0,0-.9-2.4C131.5,89.6,130.5,88.1,129.5,86.6Z"/><path class="cls-11" d="M114.6,76.3a32.5,32.5,0,0,1,5.9,3.7,18.4,18.4,0,0,1,2.5,2.3,6.2,6.2,0,0,1,1.8,3,4.2,4.2,0,0,0-.9-1.4,6.9,6.9,0,0,0-1.3-1.1,27.5,27.5,0,0,0-2.6-2.2Z"/><path class="cls-11" d="M100.5,85.7l-3.4,3.1a30.7,30.7,0,0,1-3.6,2.7,20.2,20.2,0,0,1-4.1,2.2,9.9,9.9,0,0,1-4.5.7,13.3,13.3,0,0,0,4.3-1.3,38.4,38.4,0,0,0,3.9-2.2l3.7-2.6Z"/><path class="cls-11" d="M100,80.5a40.3,40.3,0,0,0-5.2,2.1,38.8,38.8,0,0,0-4.8,3c-1.5,1.1-2.9,2.4-4.3,3.6l-4.1,3.9c1.2-1.5,2.4-2.9,3.7-4.3A38.9,38.9,0,0,1,89.6,85a30.1,30.1,0,0,1,4.9-2.9A26.6,26.6,0,0,1,100,80.5Z"/><path class="cls-11" d="M100,83.6l-3.8,2.3-3.7,2.3c-1.3.7-2.5,1.5-3.7,2.3l-3.7,2.4A29.8,29.8,0,0,1,88.4,90l3.7-2.5c1.2-.7,2.5-1.5,3.8-2.1A36.5,36.5,0,0,1,100,83.6Z"/><path
      class="cls-11"
      d="M98.3,75.7c-2.3.7-4.6,1.5-6.8,2.4a25.5,25.5,0,0,0-6,3.5,8,8,0,0,0-1.3,1.3l-1.1,1.3L80.8,87l-2.3,2.7-1,1.5a2.9,2.9,0,0,0-.7,1.6,2.9,2.9,0,0,1,.5-1.8,11.9,11.9,0,0,1,.9-1.5l2.1-2.9,2.2-2.8A12.7,12.7,0,0,1,85,81.1a24.8,24.8,0,0,1,6.4-3.5A39,39,0,0,1,98.3,75.7Z"/><path class="cls-11" d="M83.6,94.8a27.8,27.8,0,0,1-2.4,5.6,18.2,18.2,0,0,1-1.5,2.7,9.1,9.1,0,0,1-2.1,2.3,18.3,18.3,0,0,0,1.6-2.6l1.4-2.7A55.4,55.4,0,0,1,83.6,94.8Z"/><path class="cls-11" d="M74.9,112.2a40.7,40.7,0,0,1,.8-6.1,24.6,24.6,0,0,1,.9-2.9,7.4,7.4,0,0,1,1.4-2.8c-.4,1-.6,2-.9,2.9l-.6,3C76,108.3,75.5,110.2,74.9,112.2Z"/><path class="cls-11" d="M73.7,107.4a72.5,72.5,0,0,1,4-9A62.2,62.2,0,0,1,83,90a39.3,39.3,0,0,1,6.8-7.3,19.5,19.5,0,0,1,8.8-4.2,14.9,14.9,0,0,0-4.5,1.9,26.3,26.3,0,0,0-4,2.8,44.5,44.5,0,0,0-6.5,7.2,65.6,65.6,0,0,0-5.4,8.3Q75.8,102.9,73.7,107.4Z"/></g>
    <g id="tong"><path class="cls-12" d="M99.8,128.4s2.3-1.4,3.8-.5a3.6,3.6,0,0,1,4.1.8,10.1,10.1,0,0,1-4.1.9A5.9,5.9,0,0,1,99.8,128.4Z"/><path class="cls-13" d="M103.7,128.1a1.9,1.9,0,0,1,0,1.2Z"/></g><path class="cls-14" d="M100.9,125.1a3.1,3.1,0,0,0,2,.6c.9-.1,1.7-.2,1.7-.4s.1-1,.1-1.9a10.8,10.8,0,0,1-2.2-.2l-1.6-.2A13.8,13.8,0,0,0,100.9,125.1Z"/><path class="cls-14" d="M111.3,124.7a18.8,18.8,0,0,0-.1-1.9l-2.5.4v1.9A3,3,0,0,0,111.3,124.7Z"/><path class="cls-14" d="M98.2,124.7a3,3,0,0,0,2.6.4V123l-2.4-.6C98.3,123.4,98.2,124.6,98.2,124.7Z"/><path class="cls-14" d="M112.6,122.5l-1.3.3a4.2,4.2,0,0,0,.2,1.8.6.6,0,0,0,.6,0,5.8,5.8,0,0,0,.6-1.7C112.8,122.7,112.7,122.5,112.6,122.5Z"/><path class="cls-14" d="M97.8,124.7a5.9,5.9,0,0,0,.4-2.3l-1.1-.3a.2.2,0,0,0-.3.1,1.4,1.4,0,0,0-.2.6,13.6,13.6,0,0,0,.4,1.7A.9.9,0,0,0,97.8,124.7Z"/><circle class="cls-6" cx="204.6" cy="119.8" r="0.4"/><path class="cls-2" d="M91.2,207.6c.5,2.3,0,4.1.7,5.6-.7,5.2,2.7,19.8,3.2,22.3a9.7,9.7,0,0,1,5.8.2c-.1-.8,1.1-21.5,1.2-22.3s.3-2.9.7-5.7C97.3,198.9,95.1,208.5,91.2,207.6Z"/><path class="cls-4" d="M93.4,213.8l1.7.3h1.7a7.8,7.8,0,0,0,3.4-.4,7.6,7.6,0,0,1-1.6.6H96.8A13.7,13.7,0,0,1,93.4,213.8Z"/><path class="cls-2" d="M108.4,208c.3,2.8.6,5.2.6,5.7s1,18.8,1.4,21c.7.2,3.6-.8,5.6-.4a172.9,172.9,0,0,0,3.3-21c.6-2,.5-2.4.6-5.2C117.2,201.8,109.8,201.8,108.4,208Z"/><path class="cls-4" d="M110.9,214.4l1.7.2,1.7.2a12.7,12.7,0,0,0,3.4-.4l-1.6.5a5.5,5.5,0,0,1-1.8.1A9.7,9.7,0,0,1,110.9,214.4Z"/><path
      class="cls-15"
      d="M110.3,244c.3-.2,1.7-1.1,5.3-1a23.6,23.6,0,0,1,3.4.3,4.3,4.3,0,0,1-2.1-1.5,7.3,7.3,0,0,1-2-4.8,3.3,3.3,0,0,1,.7-2.5l.2-.3a4.4,4.4,0,0,0-4.3.4,5.5,5.5,0,0,1,1.1,2.3c.2.9-1,4.5-1.3,5s-1.2,1.4-2.2,3v.3C109.9,244.1,110,244.2,110.3,244Z"/><path class="cls-16" d="M110.8,234.9a6.7,6.7,0,0,1,1.2-.6,3.5,3.5,0,0,1,1.4-.3,6.3,6.3,0,0,1,2.7.3v.2a4.6,4.6,0,0,0-2.6-.3,3.1,3.1,0,0,0-1.3.3Zm.1,0a3.9,3.9,0,0,1,1.1-.6l1.4-.4h1.4l1.3.4v.2a3.9,3.9,0,0,0-2.6-.3A9.1,9.1,0,0,0,110.9,234.9Z"/><path class="cls-17" d="M110.8,234.9l1.2-.7,1.4-.3a8.4,8.4,0,0,1,2.7.4H116a5.7,5.7,0,0,0-2.6-.3l-1.3.3Zm.1,0a4.1,4.1,0,0,1,1.1-.7,7,7,0,0,1,1.4-.3h1.4a3.8,3.8,0,0,1,1.3.4H116a4.6,4.6,0,0,0-2.6-.3A9.2,9.2,0,0,0,110.9,234.9Z"/><path class="cls-18" d="M122.2,208c-1-8.7,2.4-22,.7-30-16.3,6.3-34.4-.4-34.4-.4-1.5,9.8,1.3,23.5.5,30.4,3.8.9,10.9-1,14.8.1a68.6,68.6,0,0,1,.5-11.8,10.5,10.5,0,0,0,2.5.1,94.9,94.9,0,0,1,.8,11.6C111.8,207,118.9,208.7,122.2,208Z"/>
    <g id="body_boy" data-name="body boy"><path
      class="cls-2"
      d="M71.3,181.1a2.1,2.1,0,0,0,0,1.1c-1.3.6-4.1,6.2-3.3,10,.6,1.1,1.6-2,1.7-2.3s.3.1,0,1.9-.1,1.7.4,1.9,1-3.4,1.6-3.5-.4,3.3.1,3.9a.9.9,0,0,0,1.5-.3c.2-.6.3-3.5.7-3.5s-.1,3.6.2,3.9,1.3.3,1.4-.2.1-5.6.7-5.8.8,1.7,1.1,2.1A.9.9,0,0,0,79,190c.3-.9-.8-5.7-1.3-6.6s.3-.4.6-.8a12.4,12.4,0,0,0-4.2-1.7A6.5,6.5,0,0,0,71.3,181.1Z"/><path
      class="cls-19"
      d="M139.3,180.3a83.2,83.2,0,0,0-6.4-17.7c-4-8.3-10.2-16-12.6-16.7s-7.8-2-9.2-2.2-3,2.3-6,2.2a9.2,9.2,0,0,1-5.3-2.2s-7.3.8-9.2,2.2-9,8.6-12.1,15.5c0,0-6.7,13.6-7.2,19.7a6.5,6.5,0,0,1,2.8-.2,12.4,12.4,0,0,1,4.2,1.7c1.5-2.7,4.6-9.5,5.1-10.6s5.2-9.6,5.7-10.5c-1,10-.9,20.6-2.6,23.8-.3.4,22.8,6.2,38.1.7-.5-6.6-4.1-18.4-2.6-23.9.6,1.7,4.9,8.9,5.3,9.9s3.6,7.6,5,10.3a8.2,8.2,0,0,1,2.9-1.7A13.9,13.9,0,0,1,139.3,180.3Z"/><path
      class="cls-2"
      d="M139.6,182.3a8.8,8.8,0,0,0-.3-2,13.9,13.9,0,0,0-4.1.3,8.2,8.2,0,0,0-2.9,1.7,3.8,3.8,0,0,0,.5,1.1s-2,6.7-.3,7.2,1.3-2.3,1.6-2.5.9,4.6,1,5.6a.8.8,0,0,0,1.5-.1c0-1-.3-3-.1-3.2s.9,3.3,1.2,3.9,1.2.3,1.3-.2a20.4,20.4,0,0,0-.4-3.9c.7-.7,1.1,1.1,1.5,3.2a.6.6,0,0,0,1,.1c.6-.7-.4-3.4-.3-3.7a.3.3,0,0,1,.5,0c.1.3.3,2.4.6,2.6s.9.1,1-.3S142.8,184.4,139.6,182.3Z"/></g><path class="cls-20" d="M110.7,247.5a8.8,8.8,0,0,0,4.5.7,4.7,4.7,0,0,0,3.3-1.2,5.1,5.1,0,0,0,1.3-1.6,13.7,13.7,0,0,0-.2-1.9l-.6-.2a23.6,23.6,0,0,0-3.4-.3c-3.6-.1-5,.8-5.3,1s-.4.1-1.2,1.2v.3C109.5,246.2,110,247.2,110.7,247.5Z"/><path class="cls-21" d="M119.8,245.4a5.1,5.1,0,0,1-1.3,1.6,4.7,4.7,0,0,1-3.3,1.2,8.8,8.8,0,0,1-4.5-.7c-.7-.3-1.2-1.3-1.6-2s.1,1.2.1,1.9a4.2,4.2,0,0,0,4.9,2.6c4.4.1,5.6-2.9,5.6-2.9A13.3,13.3,0,0,0,119.8,245.4Z"/><path class="cls-17" d="M116.3,233.3l.4-2.2c.4-.2,1.1,2.8.2,2.9v1c.2,1,.1,3.8,1.7,6.1a6.4,6.4,0,0,1,1,2.4l-.6-.2a4.3,4.3,0,0,1-2.1-1.5,7.3,7.3,0,0,1-2-4.8,3.3,3.3,0,0,1,.7-2.5l.2-.3a3.5,3.5,0,0,0,.6-1.6"/><path class="cls-17" d="M110.2,232.9l-.2-2.1c-.5-.1-1,2.3-.2,2.5a20.1,20.1,0,0,1,.1,2.5,7.7,7.7,0,0,0-.3,2,9.6,9.6,0,0,1-.3,2.2c0,.5-.1,2.8-.1,2.8a13.1,13.1,0,0,0-.1,2.1c1-1.6,2-2.5,2.2-3s1.5-4.1,1.3-5a5.5,5.5,0,0,0-1.1-2.3l-.2-.2s-1-.8-1.1-1.5"/><path class="cls-20" d="M111.4,236.7a3.6,3.6,0,0,1,2.4-.9c1.6,0,2.2.2,2.3.5s0,.3,0,.4a19.4,19.4,0,0,0-2.7-.1,10.9,10.9,0,0,0-1.9.5C111.4,237.1,111.2,236.8,111.4,236.7Z"/><path class="cls-20" d="M111.3,238a8.4,8.4,0,0,1,2.6-.4c1.5,0,2.1.2,2.3.4s.2.3-.1.4-1.7-.2-2.7-.1l-2,.2C111.3,238.5,111.1,238.1,111.3,238Z"/><path class="cls-20" d="M111.1,239.7a7.9,7.9,0,0,1,2.7-.7,7.7,7.7,0,0,1,2.5.4c.2.3.5.5.2.5s-2.1-.2-3-.2-2.2.5-2.4.5S111,239.8,111.1,239.7Z"/><path class="cls-20" d="M110.2,241.7a6.8,6.8,0,0,1,3.2-1.2,24.5,24.5,0,0,1,3.7.3c.2.3.5.8.2.9a11.7,11.7,0,0,0-3.6-.6,20.2,20.2,0,0,0-3.2,1.2C110.4,242.3,110.1,241.8,110.2,241.7Z"/><path class="cls-16" d="M116.9,234a1.8,1.8,0,0,1-.8.7Z"/><path class="cls-16" d="M111.3,234.4l-.8-.5c-.2-.2-.5-.3-.7-.6Z"/><path
      class="cls-15"
      d="M101.1,243.9c-.3-.2-1.8-1.1-5.4-.9a13.4,13.4,0,0,0-3.3.4,4.3,4.3,0,0,0,2-1.6c1.6-2.1,1.9-3.4,1.9-4.8a4,4,0,0,0-.8-2.6c0-.1-.1-.1-.1-.2a4.3,4.3,0,0,1,4.2.3,7.5,7.5,0,0,0-1,2.4c-.2.8,1.1,4.4,1.4,4.9s1.3,1.4,2.3,2.9v.3C101.5,243.9,101.4,244,101.1,243.9Z"/><path class="cls-16" d="M100.3,234.8l-2.5-.7a6.1,6.1,0,0,0-2.7.3h0a2.8,2.8,0,0,1,1.3-.4h1.4a3.1,3.1,0,0,1,1.3.3A2.7,2.7,0,0,1,100.3,234.8Zm0,0-1.2-.4-1.4-.3a5.4,5.4,0,0,0-2.5.3h-.1a8.4,8.4,0,0,1,2.7-.4l1.3.3A2.7,2.7,0,0,1,100.3,234.8Z"/><path class="cls-17" d="M100.3,234.8a7.8,7.8,0,0,0-2.5-.7,4.2,4.2,0,0,0-2.7.3h0l1.3-.5a6.6,6.6,0,0,1,1.4,0l1.3.3A4.7,4.7,0,0,1,100.3,234.8Zm0,0-1.2-.5-1.4-.2a6,6,0,0,0-2.6.3h0a6.3,6.3,0,0,1,2.7-.4l1.3.2A4.7,4.7,0,0,1,100.3,234.8Z"/><path class="cls-20" d="M100.8,247.4a10,10,0,0,1-4.5.8,5,5,0,0,1-3.4-1.2,4.7,4.7,0,0,1-1.3-1.5,13.7,13.7,0,0,1,.2-1.9l.6-.2a13.4,13.4,0,0,1,3.3-.4c3.6-.2,5.1.7,5.4.9s.4,0,1.2,1.1v.3A4.9,4.9,0,0,1,100.8,247.4Z"/><path class="cls-21" d="M91.6,245.5a4.7,4.7,0,0,0,1.3,1.5,5,5,0,0,0,3.4,1.2,10,10,0,0,0,4.5-.8,4.9,4.9,0,0,0,1.5-2.1,15.6,15.6,0,0,1-.1,2,4.1,4.1,0,0,1-4.8,2.6c-4.4.2-5.7-2.7-5.7-2.7A13.3,13.3,0,0,1,91.6,245.5Z"/><path class="cls-17" d="M94.6,232.6l-.4-1.4c-.4-.2-.9,2.7.1,2.8v1c-.2,1,0,3.8-1.6,6.2a6.5,6.5,0,0,0-.9,2.3h.6a4.3,4.3,0,0,0,2-1.6c1.6-2.1,1.9-3.4,1.9-4.8a4,4,0,0,0-.8-2.6c0-.1-.1-.1-.1-.2s-.4-1.3-.6-1.4"/><path class="cls-17" d="M100.9,232.8l.2-3.4c.5-.2,1,3.6.2,3.8a19.2,19.2,0,0,0,0,2.4c0,.6.4,1,.4,2a6.1,6.1,0,0,0,.3,2.2c0,.6.2,2.8.2,2.8a13.1,13.1,0,0,1,.1,2.1c-1-1.5-2-2.4-2.3-2.9s-1.6-4.1-1.4-4.9a7.5,7.5,0,0,1,1-2.4l.3-.2a3.4,3.4,0,0,0,1-1.5"/><path class="cls-20" d="M99.8,236.6a4.3,4.3,0,0,0-2.5-.8c-1.5,0-2.1.2-2.2.5s0,.3,0,.4,1.8-.3,2.7-.2l1.9.5C99.8,237,100,236.6,99.8,236.6Z"/><path class="cls-20" d="M100,237.9a8.4,8.4,0,0,0-2.6-.4,3.8,3.8,0,0,0-2.4.5c-.2.2-.1.3.1.4s1.8-.2,2.7-.2a13.4,13.4,0,0,1,2,.2C100,238.4,100.1,238,100,237.9Z"/><path class="cls-20" d="M100.1,239.6a5.9,5.9,0,0,0-2.6-.6,9.2,9.2,0,0,0-2.6.4c-.2.3-.4.5-.1.5s2-.2,3-.2a10.9,10.9,0,0,1,2.3.4C100.3,240.1,100.3,239.6,100.1,239.6Z"/><path class="cls-20" d="M101.1,241.6a6.8,6.8,0,0,0-3.2-1.2,20.2,20.2,0,0,0-3.7.4c-.2.3-.5.8-.2.9a15.3,15.3,0,0,1,3.6-.7,20.2,20.2,0,0,1,3.2,1.2C100.9,242.1,101.2,241.7,101.1,241.6Z"/><path class="cls-16" d="M94.3,234l.8.7A1.1,1.1,0,0,1,94.3,234Z"/><path class="cls-16" d="M99.9,234.3l1.4-1.1-.7.6A1.8,1.8,0,0,1,99.9,234.3Z"/></g>

</svg>
